<svg width="62" height="44" viewBox="0 0 62 44" fill="none" xmlns="http://www.w3.org/2000/svg">
<path d="M60.0842 4.89432C62.072 8.34645 60.8599 13.3939 56.9436 18.8877C53.0545 24.3434 46.6034 30.0741 38.5036 34.763C30.4038 39.4519 22.2286 42.1883 15.572 42.8376C8.86885 43.4914 3.90347 42.0202 1.91578 38.5682C-0.0719856 35.1161 1.1401 30.0686 5.05642 24.5748C8.94553 19.1191 15.3966 13.3884 23.4964 8.69952C31.5962 4.01059 39.7714 1.27419 46.428 0.624925C53.1312 -0.0288782 58.0965 1.44234 60.0842 4.89432ZM38.7777 35.2383C46.9293 30.5194 53.4453 24.7397 57.3894 19.2068C61.3293 13.68 62.7198 8.37298 60.5588 4.61999C58.3977 0.866854 53.1185 -0.579214 46.3749 0.0785343C39.6239 0.737001 31.3739 3.50526 23.2223 8.22418C15.0707 12.9431 8.55473 18.7228 4.61056 24.2557C0.670691 29.7825 -0.71982 35.0895 1.44119 38.8425C3.60228 42.5956 8.88149 44.0417 15.6251 43.384C22.3761 42.7255 30.6261 39.9572 38.7777 35.2383Z" fill="#252525" stroke="#252525" stroke-width="0.15"/>
<path d="M14.416 10.7557H16.9467V11.9047H17.074C17.3818 11.4472 17.7956 11.0961 18.3155 10.8514C18.8461 10.6067 19.5039 10.4844 20.2892 10.4844C21.5094 10.4844 22.3901 10.8036 22.9313 11.4419C23.483 12.0696 23.7589 13.0591 23.7589 14.4103V18.8469H21.2282V14.538C21.2282 13.9102 21.0744 13.4421 20.7666 13.1336C20.4589 12.825 19.939 12.6708 19.2068 12.6708C18.4959 12.6708 17.9388 12.8303 17.5356 13.1495C17.143 13.4687 16.9467 13.9581 16.9467 14.6177V18.8469H14.416V10.7557Z" fill="#252525"/>
<path d="M30.5035 19.1182C28.827 19.1182 27.5802 18.7352 26.7631 17.9691C25.9461 17.2031 25.5376 16.1551 25.5376 14.8252C25.5376 13.4847 25.9408 12.4314 26.7472 11.6653C27.5536 10.8887 28.7951 10.5003 30.4716 10.5003C33.6337 10.5003 35.2147 11.9313 35.2147 14.7933V15.4955H28.0842C28.1903 16.0487 28.445 16.453 28.8482 16.7084C29.262 16.9531 29.8615 17.0754 30.6467 17.0754C31.7715 17.0754 32.4718 16.7882 32.7477 16.2136H35.1351C34.9654 17.1393 34.4932 17.8574 33.7186 18.3681C32.944 18.8682 31.8723 19.1182 30.5035 19.1182ZM32.7159 13.8836C32.6097 13.4049 32.371 13.0591 31.9996 12.8463C31.6389 12.6335 31.1242 12.5271 30.4557 12.5271C29.1506 12.5271 28.376 12.9793 28.1319 13.8836H32.7159Z" fill="#252525"/>
<path d="M35.6876 10.7557H38.2342L39.9214 16.1339H40.0646L42.1974 10.7557H44.6008L46.7177 16.1339H46.845L48.5321 10.7557H51.0947L48.2934 18.8469H45.5239L43.4548 13.6123H43.3275L41.2583 18.8469H38.4889L35.6876 10.7557Z" fill="#252525"/>
<path d="M9.07812 19.6226H11.6088V24.2187H11.7362C12.0227 23.7719 12.4365 23.4155 12.9776 23.1495C13.5188 22.8835 14.2032 22.7505 15.0308 22.7505C16.1874 22.7505 17.0416 23.0218 17.5934 23.5644C18.1451 24.0964 18.421 24.8624 18.421 25.8625V31.113H15.8903V26.7083C15.8903 26.1125 15.7365 25.671 15.4288 25.3837C15.1317 25.0858 14.5958 24.9369 13.8212 24.9369C13.0997 24.9369 12.5479 25.0912 12.1659 25.3997C11.7945 25.6976 11.6088 26.1604 11.6088 26.7881V31.113H9.07812V19.6226Z" fill="#252525"/>
<path d="M25.1338 31.3843C24.4016 31.3843 23.7278 31.2992 23.1124 31.129C22.5076 30.9587 21.9876 30.6981 21.5526 30.347C21.1281 29.9959 20.7939 29.549 20.5498 29.0064C20.3164 28.4638 20.1997 27.8201 20.1997 27.0754C20.1997 26.3306 20.3164 25.687 20.5498 25.1444C20.7939 24.5911 21.1281 24.1389 21.5526 23.7878C21.9876 23.4368 22.5076 23.1761 23.1124 23.0059C23.7278 22.8356 24.4016 22.7505 25.1338 22.7505C25.8765 22.7505 26.5503 22.8356 27.1551 23.0059C27.7706 23.1761 28.2958 23.4368 28.7309 23.7878C29.1659 24.1389 29.5001 24.5911 29.7336 25.1444C29.9776 25.687 30.0997 26.3306 30.0997 27.0754C30.0997 27.8201 29.9776 28.4638 29.7336 29.0064C29.5001 29.549 29.1659 29.9959 28.7309 30.347C28.2958 30.6981 27.7706 30.9587 27.1551 31.129C26.5503 31.2992 25.8765 31.3843 25.1338 31.3843ZM22.7622 27.0594C22.7622 27.8042 22.9744 28.3468 23.3989 28.6873C23.8233 29.0171 24.4016 29.182 25.1338 29.182C25.8871 29.182 26.476 29.0171 26.9005 28.6873C27.3249 28.3468 27.5371 27.8042 27.5371 27.0594C27.5371 26.304 27.3196 25.7614 26.8846 25.4316C26.4601 25.1018 25.8765 24.9369 25.1338 24.9369C24.4016 24.9369 23.8233 25.1018 23.3989 25.4316C22.9744 25.7614 22.7622 26.304 22.7622 27.0594Z" fill="#252525"/>
<path d="M31.9579 23.0218H34.4886V24.0911H34.6159C34.8918 23.7187 35.2844 23.4048 35.7937 23.1495C36.3031 22.8835 36.9556 22.7505 37.7515 22.7505C38.3457 22.7505 38.8921 22.8409 39.3908 23.0218C39.8896 23.2027 40.3193 23.474 40.6801 23.8357C41.0515 24.1868 41.3379 24.6337 41.5396 25.1763C41.7518 25.7082 41.8579 26.3253 41.8579 27.0275C41.8579 27.7404 41.7518 28.3681 41.5396 28.9107C41.3273 29.4533 41.0355 29.9108 40.6642 30.2831C40.2928 30.6449 39.8471 30.9215 39.3272 31.113C38.8179 31.2939 38.2555 31.3843 37.64 31.3843C37.2156 31.3843 36.8389 31.3418 36.51 31.2566C36.181 31.1822 35.8945 31.0811 35.6505 30.9534C35.4064 30.8258 35.1995 30.6821 35.0298 30.5225C34.86 30.3629 34.722 30.2034 34.6159 30.0438H34.4886V34.3048H31.9579V23.0218ZM34.4568 27.0594C34.4568 28.4851 35.2579 29.1979 36.8601 29.1979C37.7196 29.1979 38.3351 29.0117 38.7064 28.6394C39.0778 28.2564 39.2635 27.7297 39.2635 27.0594C39.2635 26.3892 39.0725 25.8678 38.6905 25.4955C38.3085 25.1124 37.7037 24.9209 36.8761 24.9209C36.0802 24.9209 35.4754 25.1018 35.0616 25.4635C34.6584 25.8253 34.4568 26.3572 34.4568 27.0594Z" fill="#252525"/>
<path d="M48.3718 31.3843C46.6953 31.3843 45.4485 31.0013 44.6314 30.2353C43.8144 29.4692 43.4059 28.4213 43.4059 27.0914C43.4059 25.7508 43.8091 24.6975 44.6155 23.9315C45.4219 23.1548 46.6634 22.7665 48.3399 22.7665C51.502 22.7665 53.083 24.1975 53.083 27.0594V27.7616H45.9525C46.0586 28.3149 46.3133 28.7192 46.7165 28.9745C47.1303 29.2192 47.7298 29.3416 48.515 29.3416C49.6398 29.3416 50.3401 29.0543 50.616 28.4798H53.0034C52.8337 29.4054 52.3615 30.1236 51.5869 30.6342C50.8123 31.1343 49.7406 31.3843 48.3718 31.3843ZM50.5842 26.1498C50.478 25.671 50.2393 25.3252 49.8679 25.1124C49.5071 24.8997 48.9925 24.7933 48.324 24.7933C47.0189 24.7933 46.2443 25.2454 46.0002 26.1498H50.5842Z" fill="#252525"/>
</svg>
